<mxfile host="app.diagrams.net" agent="Mozilla/5.0 (Macintosh; Intel Mac OS X 10_15_7) AppleWebKit/537.36 (KHTML, like Gecko) Chrome/137.0.0.0 Safari/537.36" version="27.1.4">
  <diagram name="Page-1" id="tM3PBOQT3D9WZ4u9iD5D">
    <mxGraphModel dx="3061" dy="2493" grid="1" gridSize="10" guides="1" tooltips="1" connect="1" arrows="1" fold="1" page="1" pageScale="1" pageWidth="850" pageHeight="1100" math="0" shadow="0">
      <root>
        <mxCell id="0" />
        <mxCell id="1" parent="0" />
        <mxCell id="FmNjU1ZQi4ffYl6QM0GU-2" value="&lt;font style=&quot;font-size: 24px;&quot;&gt;NET&lt;/font&gt;" style="rounded=0;whiteSpace=wrap;html=1;" parent="1" vertex="1">
          <mxGeometry x="-600" y="-70" width="1690" height="40" as="geometry" />
        </mxCell>
        <mxCell id="FmNjU1ZQi4ffYl6QM0GU-4" value="S" style="ellipse;whiteSpace=wrap;html=1;aspect=fixed;" parent="1" vertex="1">
          <mxGeometry x="-310" y="220" width="80" height="80" as="geometry" />
        </mxCell>
        <mxCell id="FmNjU1ZQi4ffYl6QM0GU-5" value="M1" style="ellipse;whiteSpace=wrap;html=1;aspect=fixed;" parent="1" vertex="1">
          <mxGeometry x="-310" y="110" width="80" height="80" as="geometry" />
        </mxCell>
        <mxCell id="FmNjU1ZQi4ffYl6QM0GU-6" value="M2" style="ellipse;whiteSpace=wrap;html=1;aspect=fixed;" parent="1" vertex="1">
          <mxGeometry x="-560" y="220" width="80" height="80" as="geometry" />
        </mxCell>
        <mxCell id="FmNjU1ZQi4ffYl6QM0GU-9" value="OH2" style="ellipse;whiteSpace=wrap;html=1;aspect=fixed;" parent="1" vertex="1">
          <mxGeometry x="-430" y="220" width="80" height="80" as="geometry" />
        </mxCell>
        <mxCell id="FmNjU1ZQi4ffYl6QM0GU-10" value="OH1" style="ellipse;whiteSpace=wrap;html=1;aspect=fixed;" parent="1" vertex="1">
          <mxGeometry x="-430" y="110" width="80" height="80" as="geometry" />
        </mxCell>
        <mxCell id="FmNjU1ZQi4ffYl6QM0GU-12" value="DS" style="ellipse;whiteSpace=wrap;html=1;aspect=fixed;" parent="1" vertex="1">
          <mxGeometry x="-560" y="110" width="80" height="80" as="geometry" />
        </mxCell>
        <mxCell id="FmNjU1ZQi4ffYl6QM0GU-21" value="S" style="ellipse;whiteSpace=wrap;html=1;aspect=fixed;" parent="1" vertex="1">
          <mxGeometry x="360" y="80" width="80" height="80" as="geometry" />
        </mxCell>
        <mxCell id="FmNjU1ZQi4ffYl6QM0GU-22" value="M1" style="ellipse;whiteSpace=wrap;html=1;aspect=fixed;" parent="1" vertex="1">
          <mxGeometry x="440" y="110" width="80" height="80" as="geometry" />
        </mxCell>
        <mxCell id="FmNjU1ZQi4ffYl6QM0GU-23" value="M2" style="ellipse;whiteSpace=wrap;html=1;aspect=fixed;" parent="1" vertex="1">
          <mxGeometry x="190" y="240" width="80" height="80" as="geometry" />
        </mxCell>
        <mxCell id="FmNjU1ZQi4ffYl6QM0GU-24" value="OH2" style="ellipse;whiteSpace=wrap;html=1;aspect=fixed;" parent="1" vertex="1">
          <mxGeometry x="300" y="230" width="80" height="80" as="geometry" />
        </mxCell>
        <mxCell id="FmNjU1ZQi4ffYl6QM0GU-25" value="OH1" style="ellipse;whiteSpace=wrap;html=1;aspect=fixed;" parent="1" vertex="1">
          <mxGeometry x="7.5" y="90" width="80" height="80" as="geometry" />
        </mxCell>
        <mxCell id="FmNjU1ZQi4ffYl6QM0GU-26" value="DS" style="ellipse;whiteSpace=wrap;html=1;aspect=fixed;" parent="1" vertex="1">
          <mxGeometry x="70" y="240" width="80" height="80" as="geometry" />
        </mxCell>
        <mxCell id="FmNjU1ZQi4ffYl6QM0GU-27" value="S" style="ellipse;whiteSpace=wrap;html=1;aspect=fixed;" parent="1" vertex="1">
          <mxGeometry x="837.5" y="70" width="80" height="80" as="geometry" />
        </mxCell>
        <mxCell id="FmNjU1ZQi4ffYl6QM0GU-28" value="M1" style="ellipse;whiteSpace=wrap;html=1;aspect=fixed;" parent="1" vertex="1">
          <mxGeometry x="1010" y="30" width="80" height="80" as="geometry" />
        </mxCell>
        <mxCell id="FmNjU1ZQi4ffYl6QM0GU-29" value="M2" style="ellipse;whiteSpace=wrap;html=1;aspect=fixed;" parent="1" vertex="1">
          <mxGeometry x="825" y="240" width="80" height="80" as="geometry" />
        </mxCell>
        <mxCell id="FmNjU1ZQi4ffYl6QM0GU-30" value="OH2" style="ellipse;whiteSpace=wrap;html=1;aspect=fixed;" parent="1" vertex="1">
          <mxGeometry x="957.5" y="240" width="80" height="80" as="geometry" />
        </mxCell>
        <mxCell id="FmNjU1ZQi4ffYl6QM0GU-31" value="OH1" style="ellipse;whiteSpace=wrap;html=1;aspect=fixed;" parent="1" vertex="1">
          <mxGeometry x="627.5" y="40" width="80" height="80" as="geometry" />
        </mxCell>
        <mxCell id="FmNjU1ZQi4ffYl6QM0GU-32" value="DS" style="ellipse;whiteSpace=wrap;html=1;aspect=fixed;" parent="1" vertex="1">
          <mxGeometry x="690" y="240" width="80" height="80" as="geometry" />
        </mxCell>
        <mxCell id="FmNjU1ZQi4ffYl6QM0GU-33" value="S" style="ellipse;whiteSpace=wrap;html=1;aspect=fixed;" parent="1" vertex="1">
          <mxGeometry x="-430" y="610" width="80" height="80" as="geometry" />
        </mxCell>
        <mxCell id="FmNjU1ZQi4ffYl6QM0GU-34" value="M1" style="ellipse;whiteSpace=wrap;html=1;aspect=fixed;" parent="1" vertex="1">
          <mxGeometry x="-310" y="610" width="80" height="80" as="geometry" />
        </mxCell>
        <mxCell id="FmNjU1ZQi4ffYl6QM0GU-35" value="M2" style="ellipse;whiteSpace=wrap;html=1;aspect=fixed;" parent="1" vertex="1">
          <mxGeometry x="-560" y="500" width="80" height="80" as="geometry" />
        </mxCell>
        <mxCell id="FmNjU1ZQi4ffYl6QM0GU-36" value="OH2" style="ellipse;whiteSpace=wrap;html=1;aspect=fixed;" parent="1" vertex="1">
          <mxGeometry x="-560" y="610" width="80" height="80" as="geometry" />
        </mxCell>
        <mxCell id="FmNjU1ZQi4ffYl6QM0GU-37" value="OH1" style="ellipse;whiteSpace=wrap;html=1;aspect=fixed;" parent="1" vertex="1">
          <mxGeometry x="-310" y="500" width="80" height="80" as="geometry" />
        </mxCell>
        <mxCell id="FmNjU1ZQi4ffYl6QM0GU-38" value="DS" style="ellipse;whiteSpace=wrap;html=1;aspect=fixed;" parent="1" vertex="1">
          <mxGeometry x="-425" y="500" width="80" height="80" as="geometry" />
        </mxCell>
        <mxCell id="FmNjU1ZQi4ffYl6QM0GU-45" value="S" style="ellipse;whiteSpace=wrap;html=1;aspect=fixed;" parent="1" vertex="1">
          <mxGeometry x="215" y="520" width="80" height="80" as="geometry" />
        </mxCell>
        <mxCell id="FmNjU1ZQi4ffYl6QM0GU-46" value="M1" style="ellipse;whiteSpace=wrap;html=1;aspect=fixed;" parent="1" vertex="1">
          <mxGeometry x="320" y="620" width="80" height="80" as="geometry" />
        </mxCell>
        <mxCell id="FmNjU1ZQi4ffYl6QM0GU-47" value="M2" style="ellipse;whiteSpace=wrap;html=1;aspect=fixed;" parent="1" vertex="1">
          <mxGeometry x="30" y="620" width="80" height="80" as="geometry" />
        </mxCell>
        <mxCell id="FmNjU1ZQi4ffYl6QM0GU-48" value="OH2" style="ellipse;whiteSpace=wrap;html=1;aspect=fixed;" parent="1" vertex="1">
          <mxGeometry x="180" y="620" width="80" height="80" as="geometry" />
        </mxCell>
        <mxCell id="FmNjU1ZQi4ffYl6QM0GU-49" value="OH1" style="ellipse;whiteSpace=wrap;html=1;aspect=fixed;" parent="1" vertex="1">
          <mxGeometry x="370" y="450" width="80" height="80" as="geometry" />
        </mxCell>
        <mxCell id="FmNjU1ZQi4ffYl6QM0GU-50" value="DS" style="ellipse;whiteSpace=wrap;html=1;aspect=fixed;" parent="1" vertex="1">
          <mxGeometry x="252.5" y="440" width="80" height="80" as="geometry" />
        </mxCell>
        <mxCell id="FmNjU1ZQi4ffYl6QM0GU-51" value="S" style="ellipse;whiteSpace=wrap;html=1;aspect=fixed;" parent="1" vertex="1">
          <mxGeometry x="850" y="500" width="80" height="80" as="geometry" />
        </mxCell>
        <mxCell id="FmNjU1ZQi4ffYl6QM0GU-52" value="M1" style="ellipse;whiteSpace=wrap;html=1;aspect=fixed;" parent="1" vertex="1">
          <mxGeometry x="1000" y="660" width="80" height="80" as="geometry" />
        </mxCell>
        <mxCell id="FmNjU1ZQi4ffYl6QM0GU-53" value="M2" style="ellipse;whiteSpace=wrap;html=1;aspect=fixed;" parent="1" vertex="1">
          <mxGeometry x="700" y="460" width="80" height="80" as="geometry" />
        </mxCell>
        <mxCell id="FmNjU1ZQi4ffYl6QM0GU-54" value="OH2" style="ellipse;whiteSpace=wrap;html=1;aspect=fixed;" parent="1" vertex="1">
          <mxGeometry x="850" y="660" width="80" height="80" as="geometry" />
        </mxCell>
        <mxCell id="FmNjU1ZQi4ffYl6QM0GU-55" value="OH1" style="ellipse;whiteSpace=wrap;html=1;aspect=fixed;" parent="1" vertex="1">
          <mxGeometry x="985" y="460" width="80" height="80" as="geometry" />
        </mxCell>
        <mxCell id="FmNjU1ZQi4ffYl6QM0GU-56" value="DS" style="ellipse;whiteSpace=wrap;html=1;aspect=fixed;" parent="1" vertex="1">
          <mxGeometry x="700" y="660" width="80" height="80" as="geometry" />
        </mxCell>
        <mxCell id="FmNjU1ZQi4ffYl6QM0GU-57" value="S" style="ellipse;whiteSpace=wrap;html=1;aspect=fixed;" parent="1" vertex="1">
          <mxGeometry x="-560" y="980" width="80" height="80" as="geometry" />
        </mxCell>
        <mxCell id="FmNjU1ZQi4ffYl6QM0GU-58" value="M1" style="ellipse;whiteSpace=wrap;html=1;aspect=fixed;" parent="1" vertex="1">
          <mxGeometry x="-430" y="980" width="80" height="80" as="geometry" />
        </mxCell>
        <mxCell id="FmNjU1ZQi4ffYl6QM0GU-59" value="M2" style="ellipse;whiteSpace=wrap;html=1;aspect=fixed;" parent="1" vertex="1">
          <mxGeometry x="-430" y="870" width="80" height="80" as="geometry" />
        </mxCell>
        <mxCell id="FmNjU1ZQi4ffYl6QM0GU-60" value="OH2" style="ellipse;whiteSpace=wrap;html=1;aspect=fixed;" parent="1" vertex="1">
          <mxGeometry x="-560" y="870" width="80" height="80" as="geometry" />
        </mxCell>
        <mxCell id="FmNjU1ZQi4ffYl6QM0GU-61" value="OH1" style="ellipse;whiteSpace=wrap;html=1;aspect=fixed;" parent="1" vertex="1">
          <mxGeometry x="-310" y="980" width="80" height="80" as="geometry" />
        </mxCell>
        <mxCell id="FmNjU1ZQi4ffYl6QM0GU-62" value="DS" style="ellipse;whiteSpace=wrap;html=1;aspect=fixed;" parent="1" vertex="1">
          <mxGeometry x="-310" y="870" width="80" height="80" as="geometry" />
        </mxCell>
        <mxCell id="FmNjU1ZQi4ffYl6QM0GU-63" value="S" style="ellipse;whiteSpace=wrap;html=1;aspect=fixed;" parent="1" vertex="1">
          <mxGeometry x="37.5" y="930" width="80" height="80" as="geometry" />
        </mxCell>
        <mxCell id="FmNjU1ZQi4ffYl6QM0GU-64" value="M1" style="ellipse;whiteSpace=wrap;html=1;aspect=fixed;" parent="1" vertex="1">
          <mxGeometry x="97.5" y="1020" width="80" height="80" as="geometry" />
        </mxCell>
        <mxCell id="FmNjU1ZQi4ffYl6QM0GU-65" value="M2" style="ellipse;whiteSpace=wrap;html=1;aspect=fixed;" parent="1" vertex="1">
          <mxGeometry x="337.5" y="840" width="80" height="80" as="geometry" />
        </mxCell>
        <mxCell id="FmNjU1ZQi4ffYl6QM0GU-66" value="OH2" style="ellipse;whiteSpace=wrap;html=1;aspect=fixed;" parent="1" vertex="1">
          <mxGeometry y="840" width="80" height="80" as="geometry" />
        </mxCell>
        <mxCell id="FmNjU1ZQi4ffYl6QM0GU-67" value="OH1" style="ellipse;whiteSpace=wrap;html=1;aspect=fixed;" parent="1" vertex="1">
          <mxGeometry x="227.5" y="1020" width="80" height="80" as="geometry" />
        </mxCell>
        <mxCell id="FmNjU1ZQi4ffYl6QM0GU-68" value="DS" style="ellipse;whiteSpace=wrap;html=1;aspect=fixed;" parent="1" vertex="1">
          <mxGeometry x="367.5" y="1020" width="80" height="80" as="geometry" />
        </mxCell>
        <mxCell id="FmNjU1ZQi4ffYl6QM0GU-69" value="S" style="ellipse;whiteSpace=wrap;html=1;aspect=fixed;" parent="1" vertex="1">
          <mxGeometry x="842.5" y="880" width="80" height="80" as="geometry" />
        </mxCell>
        <mxCell id="FmNjU1ZQi4ffYl6QM0GU-70" value="M1" style="ellipse;whiteSpace=wrap;html=1;aspect=fixed;" parent="1" vertex="1">
          <mxGeometry x="840" y="1010" width="80" height="80" as="geometry" />
        </mxCell>
        <mxCell id="FmNjU1ZQi4ffYl6QM0GU-71" value="M2" style="ellipse;whiteSpace=wrap;html=1;aspect=fixed;" parent="1" vertex="1">
          <mxGeometry x="1000" y="840" width="80" height="80" as="geometry" />
        </mxCell>
        <mxCell id="FmNjU1ZQi4ffYl6QM0GU-72" value="OH2" style="ellipse;whiteSpace=wrap;html=1;aspect=fixed;" parent="1" vertex="1">
          <mxGeometry x="690" y="850" width="80" height="80" as="geometry" />
        </mxCell>
        <mxCell id="FmNjU1ZQi4ffYl6QM0GU-73" value="OH1" style="ellipse;whiteSpace=wrap;html=1;aspect=fixed;" parent="1" vertex="1">
          <mxGeometry x="960" y="1010" width="80" height="80" as="geometry" />
        </mxCell>
        <mxCell id="FmNjU1ZQi4ffYl6QM0GU-74" value="DS" style="ellipse;whiteSpace=wrap;html=1;aspect=fixed;" parent="1" vertex="1">
          <mxGeometry x="680" y="1010" width="80" height="80" as="geometry" />
        </mxCell>
        <mxCell id="FmNjU1ZQi4ffYl6QM0GU-75" value="S" style="ellipse;whiteSpace=wrap;html=1;aspect=fixed;" parent="1" vertex="1">
          <mxGeometry x="-562.5" y="1250" width="80" height="80" as="geometry" />
        </mxCell>
        <mxCell id="FmNjU1ZQi4ffYl6QM0GU-76" value="M1" style="ellipse;whiteSpace=wrap;html=1;aspect=fixed;" parent="1" vertex="1">
          <mxGeometry x="-562.5" y="1360" width="80" height="80" as="geometry" />
        </mxCell>
        <mxCell id="FmNjU1ZQi4ffYl6QM0GU-77" value="M2" style="ellipse;whiteSpace=wrap;html=1;aspect=fixed;" parent="1" vertex="1">
          <mxGeometry x="-312.5" y="1250" width="80" height="80" as="geometry" />
        </mxCell>
        <mxCell id="FmNjU1ZQi4ffYl6QM0GU-78" value="OH2" style="ellipse;whiteSpace=wrap;html=1;aspect=fixed;" parent="1" vertex="1">
          <mxGeometry x="-432.5" y="1250" width="80" height="80" as="geometry" />
        </mxCell>
        <mxCell id="FmNjU1ZQi4ffYl6QM0GU-79" value="OH1" style="ellipse;whiteSpace=wrap;html=1;aspect=fixed;" parent="1" vertex="1">
          <mxGeometry x="-432.5" y="1360" width="80" height="80" as="geometry" />
        </mxCell>
        <mxCell id="FmNjU1ZQi4ffYl6QM0GU-80" value="DS" style="ellipse;whiteSpace=wrap;html=1;aspect=fixed;" parent="1" vertex="1">
          <mxGeometry x="-312.5" y="1360" width="80" height="80" as="geometry" />
        </mxCell>
        <mxCell id="FmNjU1ZQi4ffYl6QM0GU-81" value="S" style="ellipse;whiteSpace=wrap;html=1;aspect=fixed;" parent="1" vertex="1">
          <mxGeometry x="30" y="1210" width="80" height="80" as="geometry" />
        </mxCell>
        <mxCell id="FmNjU1ZQi4ffYl6QM0GU-82" value="M1" style="ellipse;whiteSpace=wrap;html=1;aspect=fixed;" parent="1" vertex="1">
          <mxGeometry x="82.5" y="1360" width="80" height="80" as="geometry" />
        </mxCell>
        <mxCell id="FmNjU1ZQi4ffYl6QM0GU-83" value="M2" style="ellipse;whiteSpace=wrap;html=1;aspect=fixed;" parent="1" vertex="1">
          <mxGeometry x="390" y="1200" width="80" height="80" as="geometry" />
        </mxCell>
        <mxCell id="FmNjU1ZQi4ffYl6QM0GU-84" value="OH2" style="ellipse;whiteSpace=wrap;html=1;aspect=fixed;" parent="1" vertex="1">
          <mxGeometry x="100" y="1260" width="80" height="80" as="geometry" />
        </mxCell>
        <mxCell id="FmNjU1ZQi4ffYl6QM0GU-85" value="OH1" style="ellipse;whiteSpace=wrap;html=1;aspect=fixed;" parent="1" vertex="1">
          <mxGeometry x="212.5" y="1360" width="80" height="80" as="geometry" />
        </mxCell>
        <mxCell id="FmNjU1ZQi4ffYl6QM0GU-86" value="DS" style="ellipse;whiteSpace=wrap;html=1;aspect=fixed;" parent="1" vertex="1">
          <mxGeometry x="332.5" y="1360" width="80" height="80" as="geometry" />
        </mxCell>
        <mxCell id="FmNjU1ZQi4ffYl6QM0GU-87" value="S" style="ellipse;whiteSpace=wrap;html=1;aspect=fixed;" parent="1" vertex="1">
          <mxGeometry x="850" y="1230" width="80" height="80" as="geometry" />
        </mxCell>
        <mxCell id="FmNjU1ZQi4ffYl6QM0GU-88" value="M1" style="ellipse;whiteSpace=wrap;html=1;aspect=fixed;" parent="1" vertex="1">
          <mxGeometry x="707.5" y="1360" width="80" height="80" as="geometry" />
        </mxCell>
        <mxCell id="FmNjU1ZQi4ffYl6QM0GU-89" value="M2" style="ellipse;whiteSpace=wrap;html=1;aspect=fixed;" parent="1" vertex="1">
          <mxGeometry x="1030" y="1210" width="77.5" height="77.5" as="geometry" />
        </mxCell>
        <mxCell id="FmNjU1ZQi4ffYl6QM0GU-90" value="OH2" style="ellipse;whiteSpace=wrap;html=1;aspect=fixed;" parent="1" vertex="1">
          <mxGeometry x="660" y="1210" width="80" height="80" as="geometry" />
        </mxCell>
        <mxCell id="FmNjU1ZQi4ffYl6QM0GU-91" value="OH1" style="ellipse;whiteSpace=wrap;html=1;aspect=fixed;" parent="1" vertex="1">
          <mxGeometry x="837.5" y="1360" width="80" height="80" as="geometry" />
        </mxCell>
        <mxCell id="FmNjU1ZQi4ffYl6QM0GU-92" value="DS" style="ellipse;whiteSpace=wrap;html=1;aspect=fixed;" parent="1" vertex="1">
          <mxGeometry x="957.5" y="1360" width="80" height="80" as="geometry" />
        </mxCell>
        <mxCell id="FmNjU1ZQi4ffYl6QM0GU-93" value="S" style="ellipse;whiteSpace=wrap;html=1;aspect=fixed;" parent="1" vertex="1">
          <mxGeometry x="-430" y="1590" width="80" height="80" as="geometry" />
        </mxCell>
        <mxCell id="FmNjU1ZQi4ffYl6QM0GU-94" value="M1" style="ellipse;whiteSpace=wrap;html=1;aspect=fixed;" parent="1" vertex="1">
          <mxGeometry x="-555" y="1590" width="80" height="80" as="geometry" />
        </mxCell>
        <mxCell id="FmNjU1ZQi4ffYl6QM0GU-95" value="M2" style="ellipse;whiteSpace=wrap;html=1;aspect=fixed;" parent="1" vertex="1">
          <mxGeometry x="-310" y="1690" width="80" height="80" as="geometry" />
        </mxCell>
        <mxCell id="FmNjU1ZQi4ffYl6QM0GU-96" value="OH2" style="ellipse;whiteSpace=wrap;html=1;aspect=fixed;" parent="1" vertex="1">
          <mxGeometry x="-310" y="1590" width="80" height="80" as="geometry" />
        </mxCell>
        <mxCell id="FmNjU1ZQi4ffYl6QM0GU-97" value="OH1" style="ellipse;whiteSpace=wrap;html=1;aspect=fixed;" parent="1" vertex="1">
          <mxGeometry x="-555" y="1690" width="80" height="80" as="geometry" />
        </mxCell>
        <mxCell id="FmNjU1ZQi4ffYl6QM0GU-98" value="DS" style="ellipse;whiteSpace=wrap;html=1;aspect=fixed;" parent="1" vertex="1">
          <mxGeometry x="-430" y="1690" width="80" height="80" as="geometry" />
        </mxCell>
        <mxCell id="FmNjU1ZQi4ffYl6QM0GU-99" value="S" style="ellipse;whiteSpace=wrap;html=1;aspect=fixed;" parent="1" vertex="1">
          <mxGeometry x="205" y="1560" width="80" height="80" as="geometry" />
        </mxCell>
        <mxCell id="FmNjU1ZQi4ffYl6QM0GU-100" value="M1" style="ellipse;whiteSpace=wrap;html=1;aspect=fixed;" parent="1" vertex="1">
          <mxGeometry x="17.5" y="1550" width="80" height="80" as="geometry" />
        </mxCell>
        <mxCell id="FmNjU1ZQi4ffYl6QM0GU-101" value="M2" style="ellipse;whiteSpace=wrap;html=1;aspect=fixed;" parent="1" vertex="1">
          <mxGeometry x="332.5" y="1690" width="80" height="80" as="geometry" />
        </mxCell>
        <mxCell id="FmNjU1ZQi4ffYl6QM0GU-102" value="OH2" style="ellipse;whiteSpace=wrap;html=1;aspect=fixed;" parent="1" vertex="1">
          <mxGeometry x="385" y="1550" width="80" height="80" as="geometry" />
        </mxCell>
        <mxCell id="FmNjU1ZQi4ffYl6QM0GU-103" value="OH1" style="ellipse;whiteSpace=wrap;html=1;aspect=fixed;" parent="1" vertex="1">
          <mxGeometry x="87.5" y="1690" width="80" height="80" as="geometry" />
        </mxCell>
        <mxCell id="FmNjU1ZQi4ffYl6QM0GU-104" value="DS" style="ellipse;whiteSpace=wrap;html=1;aspect=fixed;" parent="1" vertex="1">
          <mxGeometry x="212.5" y="1690" width="80" height="80" as="geometry" />
        </mxCell>
        <mxCell id="FmNjU1ZQi4ffYl6QM0GU-105" value="S" style="ellipse;whiteSpace=wrap;html=1;aspect=fixed;" parent="1" vertex="1">
          <mxGeometry x="810" y="1570" width="80" height="80" as="geometry" />
        </mxCell>
        <mxCell id="FmNjU1ZQi4ffYl6QM0GU-106" value="M1" style="ellipse;whiteSpace=wrap;html=1;aspect=fixed;" parent="1" vertex="1">
          <mxGeometry x="670" y="1560" width="80" height="80" as="geometry" />
        </mxCell>
        <mxCell id="FmNjU1ZQi4ffYl6QM0GU-107" value="M2" style="ellipse;whiteSpace=wrap;html=1;aspect=fixed;" parent="1" vertex="1">
          <mxGeometry x="962.5" y="1690" width="80" height="80" as="geometry" />
        </mxCell>
        <mxCell id="FmNjU1ZQi4ffYl6QM0GU-108" value="OH2" style="ellipse;whiteSpace=wrap;html=1;aspect=fixed;" parent="1" vertex="1">
          <mxGeometry x="1030" y="1550" width="80" height="80" as="geometry" />
        </mxCell>
        <mxCell id="FmNjU1ZQi4ffYl6QM0GU-109" value="OH1" style="ellipse;whiteSpace=wrap;html=1;aspect=fixed;" parent="1" vertex="1">
          <mxGeometry x="717.5" y="1690" width="80" height="80" as="geometry" />
        </mxCell>
        <mxCell id="FmNjU1ZQi4ffYl6QM0GU-110" value="DS" style="ellipse;whiteSpace=wrap;html=1;aspect=fixed;" parent="1" vertex="1">
          <mxGeometry x="842.5" y="1690" width="80" height="80" as="geometry" />
        </mxCell>
        <mxCell id="FmNjU1ZQi4ffYl6QM0GU-111" value="S" style="ellipse;whiteSpace=wrap;html=1;aspect=fixed;" parent="1" vertex="1">
          <mxGeometry x="-310" y="1920" width="80" height="80" as="geometry" />
        </mxCell>
        <mxCell id="FmNjU1ZQi4ffYl6QM0GU-112" value="M1" style="ellipse;whiteSpace=wrap;html=1;aspect=fixed;" parent="1" vertex="1">
          <mxGeometry x="-430" y="1920" width="80" height="80" as="geometry" />
        </mxCell>
        <mxCell id="FmNjU1ZQi4ffYl6QM0GU-113" value="M2" style="ellipse;whiteSpace=wrap;html=1;aspect=fixed;" parent="1" vertex="1">
          <mxGeometry x="-430" y="2030" width="80" height="80" as="geometry" />
        </mxCell>
        <mxCell id="FmNjU1ZQi4ffYl6QM0GU-114" value="OH2" style="ellipse;whiteSpace=wrap;html=1;aspect=fixed;" parent="1" vertex="1">
          <mxGeometry x="-310" y="2030" width="80" height="80" as="geometry" />
        </mxCell>
        <mxCell id="FmNjU1ZQi4ffYl6QM0GU-115" value="OH1" style="ellipse;whiteSpace=wrap;html=1;aspect=fixed;" parent="1" vertex="1">
          <mxGeometry x="-560" y="1920" width="80" height="80" as="geometry" />
        </mxCell>
        <mxCell id="FmNjU1ZQi4ffYl6QM0GU-116" value="DS" style="ellipse;whiteSpace=wrap;html=1;aspect=fixed;" parent="1" vertex="1">
          <mxGeometry x="-560" y="2030" width="80" height="80" as="geometry" />
        </mxCell>
        <mxCell id="FmNjU1ZQi4ffYl6QM0GU-129" value="S" style="ellipse;whiteSpace=wrap;html=1;aspect=fixed;" parent="1" vertex="1">
          <mxGeometry x="837.5" y="1880" width="80" height="80" as="geometry" />
        </mxCell>
        <mxCell id="FmNjU1ZQi4ffYl6QM0GU-130" value="M1" style="ellipse;whiteSpace=wrap;html=1;aspect=fixed;" parent="1" vertex="1">
          <mxGeometry x="1030" y="1860" width="80" height="80" as="geometry" />
        </mxCell>
        <mxCell id="FmNjU1ZQi4ffYl6QM0GU-131" value="M2" style="ellipse;whiteSpace=wrap;html=1;aspect=fixed;" parent="1" vertex="1">
          <mxGeometry x="840" y="2030" width="80" height="80" as="geometry" />
        </mxCell>
        <mxCell id="FmNjU1ZQi4ffYl6QM0GU-132" value="OH2" style="ellipse;whiteSpace=wrap;html=1;aspect=fixed;" parent="1" vertex="1">
          <mxGeometry x="960" y="2030" width="80" height="80" as="geometry" />
        </mxCell>
        <mxCell id="FmNjU1ZQi4ffYl6QM0GU-133" value="OH1" style="ellipse;whiteSpace=wrap;html=1;aspect=fixed;" parent="1" vertex="1">
          <mxGeometry x="670" y="1860" width="80" height="80" as="geometry" />
        </mxCell>
        <mxCell id="FmNjU1ZQi4ffYl6QM0GU-134" value="DS" style="ellipse;whiteSpace=wrap;html=1;aspect=fixed;" parent="1" vertex="1">
          <mxGeometry x="710" y="2030" width="80" height="80" as="geometry" />
        </mxCell>
        <mxCell id="FmNjU1ZQi4ffYl6QM0GU-135" value="S" style="ellipse;whiteSpace=wrap;html=1;aspect=fixed;" parent="1" vertex="1">
          <mxGeometry x="390" y="1920" width="80" height="80" as="geometry" />
        </mxCell>
        <mxCell id="FmNjU1ZQi4ffYl6QM0GU-136" value="M1" style="ellipse;whiteSpace=wrap;html=1;aspect=fixed;" parent="1" vertex="1">
          <mxGeometry x="345" y="1860" width="80" height="80" as="geometry" />
        </mxCell>
        <mxCell id="FmNjU1ZQi4ffYl6QM0GU-137" value="M2" style="ellipse;whiteSpace=wrap;html=1;aspect=fixed;" parent="1" vertex="1">
          <mxGeometry x="215" y="2030" width="80" height="80" as="geometry" />
        </mxCell>
        <mxCell id="FmNjU1ZQi4ffYl6QM0GU-138" value="OH2" style="ellipse;whiteSpace=wrap;html=1;aspect=fixed;" parent="1" vertex="1">
          <mxGeometry x="335" y="2030" width="80" height="80" as="geometry" />
        </mxCell>
        <mxCell id="FmNjU1ZQi4ffYl6QM0GU-139" value="OH1" style="ellipse;whiteSpace=wrap;html=1;aspect=fixed;" parent="1" vertex="1">
          <mxGeometry x="37.5" y="1880" width="80" height="80" as="geometry" />
        </mxCell>
        <mxCell id="FmNjU1ZQi4ffYl6QM0GU-140" value="DS" style="ellipse;whiteSpace=wrap;html=1;aspect=fixed;" parent="1" vertex="1">
          <mxGeometry x="85" y="2030" width="80" height="80" as="geometry" />
        </mxCell>
        <mxCell id="FmNjU1ZQi4ffYl6QM0GU-147" value="Rotation" style="text;html=1;align=center;verticalAlign=middle;resizable=0;points=[];autosize=1;strokeColor=none;fillColor=none;fontSize=24;" parent="1" vertex="1">
          <mxGeometry x="-445" y="-20" width="110" height="40" as="geometry" />
        </mxCell>
        <mxCell id="FmNjU1ZQi4ffYl6QM0GU-148" value="Serve-Receive" style="text;html=1;align=center;verticalAlign=middle;resizable=0;points=[];autosize=1;strokeColor=none;fillColor=none;fontSize=24;" parent="1" vertex="1">
          <mxGeometry x="130" y="-20" width="180" height="40" as="geometry" />
        </mxCell>
        <mxCell id="FmNjU1ZQi4ffYl6QM0GU-149" value="Offense" style="text;html=1;align=center;verticalAlign=middle;resizable=0;points=[];autosize=1;strokeColor=none;fillColor=none;fontSize=24;" parent="1" vertex="1">
          <mxGeometry x="825" y="-10" width="110" height="40" as="geometry" />
        </mxCell>
      </root>
    </mxGraphModel>
  </diagram>
</mxfile>
